<mxfile host="app.diagrams.net" modified="2020-06-18T05:55:43.840Z" agent="5.0 (X11; Linux x86_64) AppleWebKit/537.36 (KHTML, like Gecko) Ubuntu Chromium/81.0.4044.138 Chrome/81.0.4044.138 Safari/537.36" etag="mLmBOr8uGfwSXICTaLe3" version="13.2.6" type="github">
  <diagram id="3ip21wDYUXcRaa9iWzo2" name="Page-1">
    <mxGraphModel dx="1664" dy="907" grid="1" gridSize="10" guides="1" tooltips="1" connect="1" arrows="1" fold="1" page="1" pageScale="1" pageWidth="1169" pageHeight="827" math="0" shadow="0">
      <root>
        <mxCell id="0" />
        <mxCell id="1" parent="0" />
        <mxCell id="KMkWSv0KlzKdP9IzfTGZ-31" value="Perception processor" style="rounded=0;whiteSpace=wrap;html=1;fillColor=none;dashed=1;align=right;verticalAlign=bottom;" parent="1" vertex="1">
          <mxGeometry x="140" y="190" width="980" height="210" as="geometry" />
        </mxCell>
        <mxCell id="KMkWSv0KlzKdP9IzfTGZ-30" value="Localization processor" style="rounded=0;whiteSpace=wrap;html=1;fillColor=none;dashed=1;align=right;verticalAlign=top;" parent="1" vertex="1">
          <mxGeometry x="140" y="40" width="980" height="120" as="geometry" />
        </mxCell>
        <mxCell id="KMkWSv0KlzKdP9IzfTGZ-4" value="" style="edgeStyle=orthogonalEdgeStyle;rounded=0;orthogonalLoop=1;jettySize=auto;html=1;" parent="1" source="KMkWSv0KlzKdP9IzfTGZ-1" target="KMkWSv0KlzKdP9IzfTGZ-3" edge="1">
          <mxGeometry relative="1" as="geometry" />
        </mxCell>
        <mxCell id="KMkWSv0KlzKdP9IzfTGZ-1" value="RTK_GPS/IMU" style="rounded=1;whiteSpace=wrap;html=1;fillColor=#f5f5f5;strokeColor=#666666;fontColor=#333333;" parent="1" vertex="1">
          <mxGeometry x="200" y="80" width="120" height="60" as="geometry" />
        </mxCell>
        <mxCell id="KMkWSv0KlzKdP9IzfTGZ-26" style="edgeStyle=orthogonalEdgeStyle;rounded=0;orthogonalLoop=1;jettySize=auto;html=1;entryX=0.5;entryY=0;entryDx=0;entryDy=0;" parent="1" source="KMkWSv0KlzKdP9IzfTGZ-3" target="KMkWSv0KlzKdP9IzfTGZ-24" edge="1">
          <mxGeometry relative="1" as="geometry" />
        </mxCell>
        <mxCell id="KMkWSv0KlzKdP9IzfTGZ-3" value="VSLAM" style="rounded=1;whiteSpace=wrap;html=1;fillColor=#f5f5f5;strokeColor=#666666;fontColor=#333333;" parent="1" vertex="1">
          <mxGeometry x="400" y="80" width="120" height="60" as="geometry" />
        </mxCell>
        <mxCell id="KMkWSv0KlzKdP9IzfTGZ-6" style="edgeStyle=orthogonalEdgeStyle;rounded=0;orthogonalLoop=1;jettySize=auto;html=1;entryX=0.5;entryY=1;entryDx=0;entryDy=0;" parent="1" source="KMkWSv0KlzKdP9IzfTGZ-5" target="KMkWSv0KlzKdP9IzfTGZ-3" edge="1">
          <mxGeometry relative="1" as="geometry">
            <Array as="points">
              <mxPoint x="260" y="170" />
              <mxPoint x="460" y="170" />
            </Array>
          </mxGeometry>
        </mxCell>
        <mxCell id="KMkWSv0KlzKdP9IzfTGZ-8" value="" style="edgeStyle=orthogonalEdgeStyle;rounded=0;orthogonalLoop=1;jettySize=auto;html=1;" parent="1" source="KMkWSv0KlzKdP9IzfTGZ-5" target="KMkWSv0KlzKdP9IzfTGZ-7" edge="1">
          <mxGeometry relative="1" as="geometry" />
        </mxCell>
        <mxCell id="KMkWSv0KlzKdP9IzfTGZ-21" style="edgeStyle=orthogonalEdgeStyle;rounded=0;orthogonalLoop=1;jettySize=auto;html=1;" parent="1" source="KMkWSv0KlzKdP9IzfTGZ-5" target="KMkWSv0KlzKdP9IzfTGZ-19" edge="1">
          <mxGeometry relative="1" as="geometry">
            <Array as="points">
              <mxPoint x="260" y="290" />
              <mxPoint x="660" y="290" />
            </Array>
          </mxGeometry>
        </mxCell>
        <mxCell id="KMkWSv0KlzKdP9IzfTGZ-5" value="Stereo Vision" style="rounded=1;whiteSpace=wrap;html=1;fillColor=#f5f5f5;strokeColor=#666666;fontColor=#333333;" parent="1" vertex="1">
          <mxGeometry x="200" y="200" width="120" height="60" as="geometry" />
        </mxCell>
        <mxCell id="KMkWSv0KlzKdP9IzfTGZ-25" value="" style="edgeStyle=orthogonalEdgeStyle;rounded=0;orthogonalLoop=1;jettySize=auto;html=1;" parent="1" source="KMkWSv0KlzKdP9IzfTGZ-7" target="KMkWSv0KlzKdP9IzfTGZ-24" edge="1">
          <mxGeometry relative="1" as="geometry" />
        </mxCell>
        <mxCell id="KMkWSv0KlzKdP9IzfTGZ-7" value="Freespace" style="rounded=1;whiteSpace=wrap;html=1;fillColor=#f5f5f5;strokeColor=#666666;fontColor=#333333;" parent="1" vertex="1">
          <mxGeometry x="400" y="200" width="120" height="60" as="geometry" />
        </mxCell>
        <mxCell id="KMkWSv0KlzKdP9IzfTGZ-29" value="" style="edgeStyle=orthogonalEdgeStyle;rounded=0;orthogonalLoop=1;jettySize=auto;html=1;" parent="1" source="KMkWSv0KlzKdP9IzfTGZ-24" target="KMkWSv0KlzKdP9IzfTGZ-28" edge="1">
          <mxGeometry relative="1" as="geometry" />
        </mxCell>
        <mxCell id="KMkWSv0KlzKdP9IzfTGZ-24" value="Merge&amp;amp;Transform" style="rounded=1;whiteSpace=wrap;html=1;fillColor=#f5f5f5;strokeColor=#666666;fontColor=#333333;" parent="1" vertex="1">
          <mxGeometry x="760" y="200" width="120" height="60" as="geometry" />
        </mxCell>
        <mxCell id="KMkWSv0KlzKdP9IzfTGZ-28" value="Publish perception rusult" style="rounded=1;whiteSpace=wrap;html=1;fillColor=#f5f5f5;strokeColor=#666666;fontColor=#333333;" parent="1" vertex="1">
          <mxGeometry x="960" y="200" width="120" height="60" as="geometry" />
        </mxCell>
        <mxCell id="KMkWSv0KlzKdP9IzfTGZ-9" value="" style="edgeStyle=orthogonalEdgeStyle;rounded=0;orthogonalLoop=1;jettySize=auto;html=1;" parent="1" source="KMkWSv0KlzKdP9IzfTGZ-10" target="KMkWSv0KlzKdP9IzfTGZ-11" edge="1">
          <mxGeometry relative="1" as="geometry" />
        </mxCell>
        <mxCell id="KMkWSv0KlzKdP9IzfTGZ-10" value="Object Detection" style="rounded=1;whiteSpace=wrap;html=1;fillColor=#f5f5f5;strokeColor=#666666;fontColor=#333333;" parent="1" vertex="1">
          <mxGeometry x="200" y="320" width="120" height="60" as="geometry" />
        </mxCell>
        <mxCell id="KMkWSv0KlzKdP9IzfTGZ-20" value="" style="edgeStyle=orthogonalEdgeStyle;rounded=0;orthogonalLoop=1;jettySize=auto;html=1;" parent="1" source="KMkWSv0KlzKdP9IzfTGZ-11" target="KMkWSv0KlzKdP9IzfTGZ-19" edge="1">
          <mxGeometry relative="1" as="geometry" />
        </mxCell>
        <mxCell id="KMkWSv0KlzKdP9IzfTGZ-11" value="MOT" style="rounded=1;whiteSpace=wrap;html=1;fillColor=#f5f5f5;strokeColor=#666666;fontColor=#333333;" parent="1" vertex="1">
          <mxGeometry x="400" y="320" width="120" height="60" as="geometry" />
        </mxCell>
        <mxCell id="KMkWSv0KlzKdP9IzfTGZ-27" style="edgeStyle=orthogonalEdgeStyle;rounded=0;orthogonalLoop=1;jettySize=auto;html=1;entryX=0.5;entryY=1;entryDx=0;entryDy=0;" parent="1" source="KMkWSv0KlzKdP9IzfTGZ-19" target="KMkWSv0KlzKdP9IzfTGZ-24" edge="1">
          <mxGeometry relative="1" as="geometry" />
        </mxCell>
        <mxCell id="KMkWSv0KlzKdP9IzfTGZ-19" value="Behavior Prediction" style="rounded=1;whiteSpace=wrap;html=1;fillColor=#f5f5f5;strokeColor=#666666;fontColor=#333333;" parent="1" vertex="1">
          <mxGeometry x="600" y="320" width="120" height="60" as="geometry" />
        </mxCell>
        <mxCell id="KMkWSv0KlzKdP9IzfTGZ-13" style="edgeStyle=orthogonalEdgeStyle;rounded=0;orthogonalLoop=1;jettySize=auto;html=1;entryX=0;entryY=0.5;entryDx=0;entryDy=0;" parent="1" source="KMkWSv0KlzKdP9IzfTGZ-12" target="KMkWSv0KlzKdP9IzfTGZ-5" edge="1">
          <mxGeometry relative="1" as="geometry" />
        </mxCell>
        <mxCell id="KMkWSv0KlzKdP9IzfTGZ-14" style="edgeStyle=orthogonalEdgeStyle;rounded=0;orthogonalLoop=1;jettySize=auto;html=1;entryX=0;entryY=0.5;entryDx=0;entryDy=0;" parent="1" source="KMkWSv0KlzKdP9IzfTGZ-12" target="KMkWSv0KlzKdP9IzfTGZ-10" edge="1">
          <mxGeometry relative="1" as="geometry" />
        </mxCell>
        <mxCell id="KMkWSv0KlzKdP9IzfTGZ-12" value="stereo camera" style="text;html=1;strokeColor=none;fillColor=none;align=center;verticalAlign=middle;whiteSpace=wrap;rounded=0;" parent="1" vertex="1">
          <mxGeometry x="50" y="280" width="60" height="20" as="geometry" />
        </mxCell>
        <mxCell id="KMkWSv0KlzKdP9IzfTGZ-18" style="edgeStyle=orthogonalEdgeStyle;rounded=0;orthogonalLoop=1;jettySize=auto;html=1;entryX=0;entryY=0.5;entryDx=0;entryDy=0;" parent="1" source="KMkWSv0KlzKdP9IzfTGZ-16" target="KMkWSv0KlzKdP9IzfTGZ-1" edge="1">
          <mxGeometry relative="1" as="geometry" />
        </mxCell>
        <mxCell id="KMkWSv0KlzKdP9IzfTGZ-16" value="GNSS rover station" style="text;html=1;strokeColor=none;fillColor=none;align=center;verticalAlign=middle;whiteSpace=wrap;rounded=0;" parent="1" vertex="1">
          <mxGeometry x="30" y="100" width="100" height="20" as="geometry" />
        </mxCell>
        <mxCell id="KMkWSv0KlzKdP9IzfTGZ-23" style="edgeStyle=orthogonalEdgeStyle;rounded=0;orthogonalLoop=1;jettySize=auto;html=1;entryX=0.5;entryY=1;entryDx=0;entryDy=0;" parent="1" source="KMkWSv0KlzKdP9IzfTGZ-22" target="KMkWSv0KlzKdP9IzfTGZ-19" edge="1">
          <mxGeometry relative="1" as="geometry" />
        </mxCell>
        <mxCell id="KMkWSv0KlzKdP9IzfTGZ-22" value="77GHz Radar" style="text;html=1;strokeColor=none;fillColor=none;align=center;verticalAlign=middle;whiteSpace=wrap;rounded=0;" parent="1" vertex="1">
          <mxGeometry x="630" y="410" width="60" height="40" as="geometry" />
        </mxCell>
        <mxCell id="KMkWSv0KlzKdP9IzfTGZ-32" value="GNSS data processor loop" style="shape=step;perimeter=stepPerimeter;whiteSpace=wrap;html=1;fixedSize=1;fillColor=#fff2cc;strokeColor=#d6b656;" parent="1" vertex="1">
          <mxGeometry x="120" y="480" width="190" height="50" as="geometry" />
        </mxCell>
        <mxCell id="KMkWSv0KlzKdP9IzfTGZ-33" value="VSLAM front-end" style="shape=step;perimeter=stepPerimeter;whiteSpace=wrap;html=1;fixedSize=1;fillColor=#d5e8d4;strokeColor=#82b366;" parent="1" vertex="1">
          <mxGeometry x="120" y="530" width="650" height="50" as="geometry" />
        </mxCell>
        <mxCell id="KMkWSv0KlzKdP9IzfTGZ-34" value="VSLAM back-end" style="shape=step;perimeter=stepPerimeter;whiteSpace=wrap;html=1;fixedSize=1;fillColor=#d5e8d4;strokeColor=#82b366;" parent="1" vertex="1">
          <mxGeometry x="120" y="580" width="650" height="50" as="geometry" />
        </mxCell>
        <mxCell id="KMkWSv0KlzKdP9IzfTGZ-35" value="Stereo vsion" style="shape=step;perimeter=stepPerimeter;whiteSpace=wrap;html=1;fixedSize=1;fillColor=#dae8fc;strokeColor=#6c8ebf;" parent="1" vertex="1">
          <mxGeometry x="120" y="630" width="670" height="50" as="geometry" />
        </mxCell>
        <mxCell id="KMkWSv0KlzKdP9IzfTGZ-37" value="Object detection" style="shape=step;perimeter=stepPerimeter;whiteSpace=wrap;html=1;fixedSize=1;fillColor=#dae8fc;strokeColor=#6c8ebf;" parent="1" vertex="1">
          <mxGeometry x="120" y="680" width="360" height="50" as="geometry" />
        </mxCell>
        <mxCell id="KMkWSv0KlzKdP9IzfTGZ-38" value="FreeSpace" style="shape=step;perimeter=stepPerimeter;whiteSpace=wrap;html=1;fixedSize=1;fillColor=#fff2cc;strokeColor=#d6b656;" parent="1" vertex="1">
          <mxGeometry x="120" y="730" width="460" height="50" as="geometry" />
        </mxCell>
        <mxCell id="KMkWSv0KlzKdP9IzfTGZ-39" value="MOT" style="shape=step;perimeter=stepPerimeter;whiteSpace=wrap;html=1;fixedSize=1;fillColor=#fff2cc;strokeColor=#d6b656;" parent="1" vertex="1">
          <mxGeometry x="460" y="680" width="120" height="50" as="geometry" />
        </mxCell>
        <mxCell id="KMkWSv0KlzKdP9IzfTGZ-40" value="Merge&amp;amp;&lt;br&gt;Transform" style="shape=step;perimeter=stepPerimeter;whiteSpace=wrap;html=1;fixedSize=1;fillColor=#fff2cc;strokeColor=#d6b656;" parent="1" vertex="1">
          <mxGeometry x="560" y="730" width="100" height="50" as="geometry" />
        </mxCell>
        <mxCell id="KMkWSv0KlzKdP9IzfTGZ-41" value="Prediction" style="shape=step;perimeter=stepPerimeter;whiteSpace=wrap;html=1;fixedSize=1;fillColor=#fff2cc;strokeColor=#d6b656;" parent="1" vertex="1">
          <mxGeometry x="560" y="680" width="100" height="50" as="geometry" />
        </mxCell>
        <mxCell id="WaaC4fdpz_pXr-xngZPa-1" value="Publish" style="shape=step;perimeter=stepPerimeter;whiteSpace=wrap;html=1;fixedSize=1;fillColor=#fff2cc;strokeColor=#d6b656;" vertex="1" parent="1">
          <mxGeometry x="640" y="730" width="90" height="50" as="geometry" />
        </mxCell>
        <mxCell id="WaaC4fdpz_pXr-xngZPa-2" value="" style="endArrow=classic;html=1;" edge="1" parent="1">
          <mxGeometry width="50" height="50" relative="1" as="geometry">
            <mxPoint x="930" y="730" as="sourcePoint" />
            <mxPoint x="1070" y="730" as="targetPoint" />
          </mxGeometry>
        </mxCell>
        <mxCell id="WaaC4fdpz_pXr-xngZPa-3" value="time consumption" style="edgeLabel;html=1;align=center;verticalAlign=middle;resizable=0;points=[];" vertex="1" connectable="0" parent="WaaC4fdpz_pXr-xngZPa-2">
          <mxGeometry x="0.4667" y="-2" relative="1" as="geometry">
            <mxPoint x="-32.5" y="18" as="offset" />
          </mxGeometry>
        </mxCell>
        <mxCell id="WaaC4fdpz_pXr-xngZPa-4" value="CPU only" style="shape=step;perimeter=stepPerimeter;whiteSpace=wrap;html=1;fixedSize=1;fillColor=#fff2cc;strokeColor=#d6b656;" vertex="1" parent="1">
          <mxGeometry x="920" y="540" width="140" height="50" as="geometry" />
        </mxCell>
        <mxCell id="WaaC4fdpz_pXr-xngZPa-5" value="GPU dominate" style="shape=step;perimeter=stepPerimeter;whiteSpace=wrap;html=1;fixedSize=1;fillColor=#dae8fc;strokeColor=#6c8ebf;" vertex="1" parent="1">
          <mxGeometry x="920" y="590" width="140" height="50" as="geometry" />
        </mxCell>
        <mxCell id="WaaC4fdpz_pXr-xngZPa-6" value="GPU&amp;amp;CPU fusion" style="shape=step;perimeter=stepPerimeter;whiteSpace=wrap;html=1;fixedSize=1;fillColor=#d5e8d4;strokeColor=#82b366;" vertex="1" parent="1">
          <mxGeometry x="920" y="640" width="140" height="50" as="geometry" />
        </mxCell>
        <mxCell id="WaaC4fdpz_pXr-xngZPa-7" value="&lt;font style=&quot;font-size: 18px&quot;&gt;Perception software structure&lt;/font&gt;" style="text;html=1;strokeColor=none;fillColor=none;align=center;verticalAlign=middle;whiteSpace=wrap;rounded=0;" vertex="1" parent="1">
          <mxGeometry x="30" y="10" width="260" height="20" as="geometry" />
        </mxCell>
        <mxCell id="WaaC4fdpz_pXr-xngZPa-8" value="&lt;font style=&quot;font-size: 18px&quot;&gt;Perception thread structure&lt;/font&gt;" style="text;html=1;strokeColor=none;fillColor=none;align=center;verticalAlign=middle;whiteSpace=wrap;rounded=0;" vertex="1" parent="1">
          <mxGeometry x="30" y="430" width="260" height="20" as="geometry" />
        </mxCell>
      </root>
    </mxGraphModel>
  </diagram>
</mxfile>
